<svg xmlns="http://www.w3.org/2000/svg" xmlns:xlink="http://www.w3.org/1999/xlink" width="114" zoomAndPan="magnify" viewBox="0 0 85.5 85.499997" height="114" preserveAspectRatio="xMidYMid meet" version="1.0"><defs><clipPath id="ff55d271a0"><path d="M 44 12.402344 L 47 12.402344 L 47 15 L 44 15 Z M 44 12.402344 " clip-rule="nonzero"/></clipPath><clipPath id="bc4d51d9c4"><path d="M 13.046875 69 L 32 69 L 32 76.902344 L 13.046875 76.902344 Z M 13.046875 69 " clip-rule="nonzero"/></clipPath></defs><path fill="#ff725c" d="M 42.257812 46.160156 C 42.078125 46.160156 41.902344 46.09375 41.765625 45.957031 C 41.496094 45.6875 41.496094 45.246094 41.765625 44.976562 C 42.808594 43.929688 44.042969 44.117188 45.035156 44.269531 C 46.011719 44.421875 46.589844 44.480469 47.113281 43.957031 C 47.636719 43.429688 47.578125 42.851562 47.429688 41.871094 C 47.277344 40.878906 47.089844 39.640625 48.132812 38.597656 C 49.175781 37.550781 50.410156 37.738281 51.402344 37.890625 C 52.378906 38.039062 52.957031 38.097656 53.480469 37.574219 C 54.003906 37.050781 53.945312 36.472656 53.796875 35.492188 C 53.644531 34.5 53.457031 33.261719 54.5 32.21875 C 55.542969 31.171875 56.777344 31.359375 57.765625 31.511719 C 58.746094 31.660156 59.324219 31.71875 59.847656 31.195312 C 60.117188 30.925781 60.554688 30.925781 60.824219 31.195312 C 61.097656 31.464844 61.097656 31.90625 60.824219 32.175781 C 59.78125 33.222656 58.550781 33.035156 57.558594 32.882812 C 56.582031 32.734375 56 32.675781 55.480469 33.199219 C 54.957031 33.722656 55.015625 34.300781 55.164062 35.28125 C 55.316406 36.273438 55.503906 37.511719 54.460938 38.554688 C 53.417969 39.601562 52.183594 39.414062 51.191406 39.261719 C 50.214844 39.113281 49.636719 39.054688 49.113281 39.578125 C 48.589844 40.101562 48.648438 40.679688 48.796875 41.660156 C 48.949219 42.65625 49.136719 43.890625 48.09375 44.9375 C 47.050781 45.980469 45.816406 45.792969 44.824219 45.640625 C 43.847656 45.492188 43.269531 45.433594 42.746094 45.957031 C 42.609375 46.09375 42.433594 46.160156 42.257812 46.160156 Z M 42.257812 46.160156 " fill-opacity="1" fill-rule="nonzero"/><path fill="#78d090" d="M 37.136719 41.03125 C 36.953125 41.03125 36.769531 40.957031 36.636719 40.816406 C 36.371094 40.535156 36.382812 40.097656 36.660156 39.835938 C 41.179688 35.535156 43.394531 29.273438 42.582031 23.082031 C 42.53125 22.703125 42.796875 22.355469 43.175781 22.304688 C 43.554688 22.253906 43.902344 22.523438 43.953125 22.902344 C 44.382812 26.167969 44.027344 29.53125 42.933594 32.632812 C 41.835938 35.738281 39.996094 38.574219 37.613281 40.839844 C 37.480469 40.96875 37.308594 41.03125 37.136719 41.03125 Z M 37.136719 41.03125 " fill-opacity="1" fill-rule="nonzero"/><path fill="#78d090" d="M 48.816406 52.734375 C 48.648438 52.734375 48.476562 52.671875 48.34375 52.546875 C 48.066406 52.28125 48.054688 51.84375 48.316406 51.566406 C 50.578125 49.175781 53.410156 47.332031 56.503906 46.234375 C 59.601562 45.136719 62.960938 44.78125 66.21875 45.210938 C 66.597656 45.261719 66.863281 45.609375 66.8125 45.988281 C 66.761719 46.367188 66.414062 46.636719 66.035156 46.585938 C 59.859375 45.773438 53.609375 47.988281 49.320312 52.519531 C 49.183594 52.664062 49 52.734375 48.816406 52.734375 Z M 48.816406 52.734375 " fill-opacity="1" fill-rule="nonzero"/><path fill="#ff725c" d="M 53.113281 55.464844 C 53.113281 55.707031 53.027344 55.917969 52.855469 56.089844 C 52.683594 56.261719 52.476562 56.347656 52.234375 56.347656 C 51.988281 56.347656 51.78125 56.261719 51.609375 56.089844 C 51.4375 55.917969 51.351562 55.707031 51.351562 55.464844 C 51.351562 55.222656 51.4375 55.011719 51.609375 54.839844 C 51.78125 54.667969 51.988281 54.582031 52.234375 54.582031 C 52.476562 54.582031 52.683594 54.667969 52.855469 54.839844 C 53.027344 55.011719 53.113281 55.222656 53.113281 55.464844 Z M 53.113281 55.464844 " fill-opacity="1" fill-rule="nonzero"/><path fill="#f7e07f" d="M 60.496094 51.621094 C 60.496094 51.863281 60.410156 52.070312 60.238281 52.242188 C 60.066406 52.417969 59.859375 52.503906 59.613281 52.503906 C 59.371094 52.503906 59.164062 52.417969 58.992188 52.242188 C 58.820312 52.070312 58.734375 51.863281 58.734375 51.621094 C 58.734375 51.375 58.820312 51.167969 58.992188 50.996094 C 59.164062 50.824219 59.371094 50.734375 59.613281 50.734375 C 59.859375 50.734375 60.066406 50.824219 60.238281 50.996094 C 60.410156 51.167969 60.496094 51.375 60.496094 51.621094 Z M 60.496094 51.621094 " fill-opacity="1" fill-rule="nonzero"/><path fill="#f7e07f" d="M 73.640625 43.113281 C 73.640625 43.359375 73.554688 43.566406 73.382812 43.738281 C 73.210938 43.910156 73.003906 43.996094 72.761719 43.996094 C 72.515625 43.996094 72.308594 43.910156 72.136719 43.738281 C 71.964844 43.566406 71.878906 43.359375 71.878906 43.113281 C 71.878906 42.871094 71.964844 42.660156 72.136719 42.488281 C 72.308594 42.316406 72.515625 42.230469 72.761719 42.230469 C 73.003906 42.230469 73.210938 42.316406 73.382812 42.488281 C 73.554688 42.660156 73.640625 42.871094 73.640625 43.113281 Z M 73.640625 43.113281 " fill-opacity="1" fill-rule="nonzero"/><path fill="#78d090" d="M 61.414062 40.292969 C 61.414062 40.539062 61.328125 40.746094 61.15625 40.917969 C 60.984375 41.089844 60.777344 41.175781 60.53125 41.175781 C 60.289062 41.175781 60.082031 41.089844 59.910156 40.917969 C 59.738281 40.746094 59.652344 40.539062 59.652344 40.292969 C 59.652344 40.050781 59.738281 39.839844 59.910156 39.667969 C 60.082031 39.496094 60.289062 39.410156 60.53125 39.410156 C 60.777344 39.410156 60.984375 39.496094 61.15625 39.667969 C 61.328125 39.839844 61.414062 40.050781 61.414062 40.292969 Z M 61.414062 40.292969 " fill-opacity="1" fill-rule="nonzero"/><path fill="#ff725c" d="M 34.285156 35.347656 C 34.285156 35.59375 34.199219 35.800781 34.027344 35.972656 C 33.855469 36.144531 33.648438 36.230469 33.40625 36.230469 C 33.164062 36.230469 32.953125 36.144531 32.78125 35.972656 C 32.609375 35.800781 32.523438 35.59375 32.523438 35.347656 C 32.523438 35.105469 32.609375 34.898438 32.78125 34.722656 C 32.953125 34.550781 33.164062 34.464844 33.40625 34.464844 C 33.648438 34.464844 33.855469 34.550781 34.027344 34.722656 C 34.199219 34.898438 34.285156 35.105469 34.285156 35.347656 Z M 34.285156 35.347656 " fill-opacity="1" fill-rule="nonzero"/><path fill="#78d090" d="M 39.273438 31.601562 C 39.273438 31.84375 39.1875 32.054688 39.015625 32.226562 C 38.84375 32.398438 38.636719 32.484375 38.390625 32.484375 C 38.148438 32.484375 37.941406 32.398438 37.769531 32.226562 C 37.597656 32.054688 37.511719 31.84375 37.511719 31.601562 C 37.511719 31.359375 37.597656 31.148438 37.769531 30.976562 C 37.941406 30.804688 38.148438 30.71875 38.390625 30.71875 C 38.636719 30.71875 38.84375 30.804688 39.015625 30.976562 C 39.1875 31.148438 39.273438 31.359375 39.273438 31.601562 Z M 39.273438 31.601562 " fill-opacity="1" fill-rule="nonzero"/><path fill="#7272cc" d="M 39.355469 25.726562 C 39.355469 25.972656 39.269531 26.179688 39.097656 26.351562 C 38.925781 26.523438 38.714844 26.609375 38.472656 26.609375 C 38.230469 26.609375 38.023438 26.523438 37.851562 26.351562 C 37.679688 26.179688 37.59375 25.972656 37.59375 25.726562 C 37.59375 25.484375 37.679688 25.273438 37.851562 25.101562 C 38.023438 24.929688 38.230469 24.84375 38.472656 24.84375 C 38.714844 24.84375 38.925781 24.929688 39.097656 25.101562 C 39.269531 25.273438 39.355469 25.484375 39.355469 25.726562 Z M 39.355469 25.726562 " fill-opacity="1" fill-rule="nonzero"/><path fill="#7272cc" d="M 49.789062 32.242188 C 49.789062 32.488281 49.703125 32.695312 49.53125 32.867188 C 49.359375 33.039062 49.152344 33.125 48.90625 33.125 C 48.664062 33.125 48.457031 33.039062 48.285156 32.867188 C 48.113281 32.695312 48.027344 32.488281 48.027344 32.242188 C 48.027344 32 48.113281 31.792969 48.285156 31.617188 C 48.457031 31.445312 48.664062 31.359375 48.90625 31.359375 C 49.152344 31.359375 49.359375 31.445312 49.53125 31.617188 C 49.703125 31.792969 49.789062 32 49.789062 32.242188 Z M 49.789062 32.242188 " fill-opacity="1" fill-rule="nonzero"/><g clip-path="url(#ff55d271a0)"><path fill="#f7e07f" d="M 46.726562 13.285156 C 46.726562 13.527344 46.640625 13.738281 46.46875 13.910156 C 46.296875 14.082031 46.089844 14.167969 45.84375 14.167969 C 45.601562 14.167969 45.394531 14.082031 45.222656 13.910156 C 45.050781 13.738281 44.964844 13.527344 44.964844 13.285156 C 44.964844 13.039062 45.050781 12.832031 45.222656 12.660156 C 45.394531 12.488281 45.601562 12.402344 45.84375 12.402344 C 46.089844 12.402344 46.296875 12.488281 46.46875 12.660156 C 46.640625 12.832031 46.726562 13.039062 46.726562 13.285156 Z M 46.726562 13.285156 " fill-opacity="1" fill-rule="nonzero"/></g><path fill="#f7e07f" d="M 44.320312 39.78125 C 44.320312 40.023438 44.234375 40.234375 44.0625 40.40625 C 43.890625 40.578125 43.683594 40.664062 43.4375 40.664062 C 43.195312 40.664062 42.988281 40.578125 42.816406 40.40625 C 42.644531 40.234375 42.558594 40.023438 42.558594 39.78125 C 42.558594 39.539062 42.644531 39.328125 42.816406 39.15625 C 42.988281 38.984375 43.195312 38.898438 43.4375 38.898438 C 43.683594 38.898438 43.890625 38.984375 44.0625 39.15625 C 44.234375 39.328125 44.320312 39.539062 44.320312 39.78125 Z M 44.320312 39.78125 " fill-opacity="1" fill-rule="nonzero"/><path fill="#89cde6" d="M 64.835938 58.742188 C 64.65625 58.742188 64.480469 58.671875 64.34375 58.539062 C 64.074219 58.265625 64.074219 57.828125 64.34375 57.558594 L 65.582031 56.316406 C 65.851562 56.046875 66.289062 56.046875 66.5625 56.316406 C 66.832031 56.589844 66.832031 57.027344 66.5625 57.300781 L 65.324219 58.539062 C 65.1875 58.671875 65.011719 58.742188 64.835938 58.742188 Z M 64.835938 58.742188 " fill-opacity="1" fill-rule="nonzero"/><path fill="#89cde6" d="M 60.429688 63.15625 C 60.253906 63.15625 60.078125 63.085938 59.941406 62.953125 C 59.671875 62.679688 59.671875 62.242188 59.941406 61.96875 L 61.175781 60.730469 C 61.449219 60.460938 61.886719 60.460938 62.15625 60.730469 C 62.425781 61.003906 62.425781 61.441406 62.15625 61.710938 L 60.921875 62.953125 C 60.785156 63.085938 60.609375 63.15625 60.429688 63.15625 Z M 60.429688 63.15625 " fill-opacity="1" fill-rule="nonzero"/><path fill="#89cde6" d="M 66.351562 63.4375 C 66.175781 63.4375 66 63.367188 65.863281 63.234375 L 64.625 61.996094 C 64.355469 61.722656 64.355469 61.285156 64.625 61.011719 C 64.898438 60.742188 65.335938 60.742188 65.605469 61.011719 L 66.84375 62.253906 C 67.113281 62.523438 67.113281 62.960938 66.84375 63.234375 C 66.707031 63.367188 66.53125 63.4375 66.351562 63.4375 Z M 66.351562 63.4375 " fill-opacity="1" fill-rule="nonzero"/><path fill="#89cde6" d="M 61.386719 58.457031 C 61.207031 58.457031 61.03125 58.390625 60.894531 58.253906 L 59.660156 57.015625 C 59.390625 56.746094 59.390625 56.308594 59.660156 56.035156 C 59.929688 55.765625 60.367188 55.765625 60.636719 56.035156 L 61.875 57.273438 C 62.144531 57.546875 62.144531 57.984375 61.875 58.253906 C 61.738281 58.390625 61.5625 58.457031 61.386719 58.457031 Z M 61.386719 58.457031 " fill-opacity="1" fill-rule="nonzero"/><path fill="#ff725c" d="M 70.882812 52.019531 C 70.390625 52.019531 69.898438 51.898438 69.464844 51.65625 C 69.128906 51.46875 69.007812 51.046875 69.195312 50.714844 C 69.382812 50.378906 69.800781 50.257812 70.136719 50.445312 C 70.609375 50.707031 71.234375 50.691406 71.695312 50.40625 C 71.894531 50.285156 72.082031 50.105469 72.285156 49.914062 C 72.519531 49.691406 72.789062 49.4375 73.113281 49.238281 C 73.8125 48.8125 74.695312 48.707031 75.476562 48.953125 C 75.839844 49.070312 76.042969 49.460938 75.925781 49.824219 C 75.8125 50.191406 75.421875 50.390625 75.058594 50.277344 C 74.660156 50.152344 74.191406 50.207031 73.832031 50.425781 C 73.632812 50.546875 73.4375 50.730469 73.234375 50.921875 C 73.003906 51.140625 72.742188 51.390625 72.425781 51.585938 C 71.960938 51.875 71.421875 52.019531 70.882812 52.019531 Z M 70.882812 52.019531 " fill-opacity="1" fill-rule="nonzero"/><path fill="#f7e07f" d="M 38.238281 20.972656 C 38.003906 20.972656 37.773438 20.851562 37.644531 20.632812 C 37.449219 20.304688 37.554688 19.878906 37.882812 19.683594 C 38.347656 19.40625 38.652344 18.855469 38.636719 18.3125 C 38.628906 18.078125 38.570312 17.824219 38.503906 17.554688 C 38.429688 17.238281 38.347656 16.878906 38.339844 16.496094 C 38.324219 15.675781 38.675781 14.859375 39.277344 14.308594 C 39.558594 14.050781 40 14.070312 40.253906 14.355469 C 40.511719 14.636719 40.492188 15.074219 40.210938 15.332031 C 39.902344 15.617188 39.714844 16.050781 39.722656 16.46875 C 39.726562 16.703125 39.789062 16.964844 39.851562 17.238281 C 39.925781 17.546875 40.007812 17.898438 40.019531 18.273438 C 40.046875 19.316406 39.488281 20.339844 38.59375 20.875 C 38.480469 20.941406 38.359375 20.972656 38.238281 20.972656 Z M 38.238281 20.972656 " fill-opacity="1" fill-rule="nonzero"/><path fill="#7272cc" d="M 54.410156 20.996094 C 54.230469 20.996094 54.054688 20.929688 53.921875 20.792969 C 53.648438 20.523438 53.648438 20.082031 53.921875 19.8125 L 55.15625 18.574219 C 55.425781 18.300781 55.863281 18.300781 56.136719 18.574219 C 56.40625 18.84375 56.40625 19.28125 56.136719 19.554688 L 54.898438 20.792969 C 54.765625 20.929688 54.585938 20.996094 54.410156 20.996094 Z M 54.410156 20.996094 " fill-opacity="1" fill-rule="nonzero"/><path fill="#7272cc" d="M 50.003906 25.410156 C 49.828125 25.410156 49.652344 25.339844 49.515625 25.207031 C 49.246094 24.933594 49.246094 24.496094 49.515625 24.226562 L 50.753906 22.988281 C 51.023438 22.714844 51.460938 22.714844 51.730469 22.988281 C 52 23.257812 52 23.695312 51.730469 23.96875 L 50.496094 25.207031 C 50.359375 25.339844 50.183594 25.410156 50.003906 25.410156 Z M 50.003906 25.410156 " fill-opacity="1" fill-rule="nonzero"/><path fill="#7272cc" d="M 55.925781 25.691406 C 55.75 25.691406 55.574219 25.625 55.4375 25.488281 L 54.203125 24.25 C 53.929688 23.980469 53.929688 23.539062 54.203125 23.269531 C 54.472656 22.996094 54.910156 22.996094 55.179688 23.269531 L 56.417969 24.507812 C 56.6875 24.777344 56.6875 25.21875 56.417969 25.488281 C 56.28125 25.625 56.105469 25.691406 55.925781 25.691406 Z M 55.925781 25.691406 " fill-opacity="1" fill-rule="nonzero"/><path fill="#7272cc" d="M 50.960938 20.714844 C 50.78125 20.714844 50.605469 20.644531 50.46875 20.511719 L 49.234375 19.273438 C 48.964844 19 48.964844 18.5625 49.234375 18.289062 C 49.503906 18.019531 49.941406 18.019531 50.214844 18.289062 L 51.449219 19.53125 C 51.71875 19.800781 51.71875 20.238281 51.449219 20.511719 C 51.3125 20.644531 51.136719 20.714844 50.960938 20.714844 Z M 50.960938 20.714844 " fill-opacity="1" fill-rule="nonzero"/><path fill="#f7e07f" d="M 69.320312 36.15625 C 69.320312 36.457031 69.261719 36.746094 69.148438 37.023438 C 69.035156 37.300781 68.871094 37.542969 68.660156 37.753906 C 68.449219 37.96875 68.203125 38.132812 67.925781 38.246094 C 67.648438 38.359375 67.363281 38.417969 67.0625 38.417969 C 66.765625 38.417969 66.476562 38.359375 66.199219 38.246094 C 65.921875 38.132812 65.679688 37.96875 65.46875 37.753906 C 65.253906 37.542969 65.09375 37.300781 64.976562 37.023438 C 64.863281 36.746094 64.804688 36.457031 64.804688 36.15625 C 64.804688 35.855469 64.863281 35.566406 64.976562 35.289062 C 65.09375 35.015625 65.253906 34.769531 65.46875 34.558594 C 65.679688 34.34375 65.921875 34.179688 66.199219 34.066406 C 66.476562 33.953125 66.765625 33.894531 67.0625 33.894531 C 67.363281 33.894531 67.648438 33.953125 67.925781 34.066406 C 68.203125 34.179688 68.449219 34.34375 68.660156 34.558594 C 68.871094 34.769531 69.035156 35.015625 69.148438 35.289062 C 69.261719 35.566406 69.320312 35.855469 69.320312 36.15625 Z M 69.320312 36.15625 " fill-opacity="1" fill-rule="nonzero"/><path fill="#89cde6" d="M 34.300781 27.113281 C 34.300781 27.414062 34.242188 27.703125 34.128906 27.980469 C 34.015625 28.257812 33.851562 28.5 33.640625 28.714844 C 33.425781 28.925781 33.183594 29.089844 32.90625 29.203125 C 32.628906 29.320312 32.34375 29.375 32.042969 29.375 C 31.742188 29.375 31.457031 29.320312 31.179688 29.203125 C 30.902344 29.089844 30.660156 28.925781 30.449219 28.714844 C 30.234375 28.5 30.074219 28.257812 29.957031 27.980469 C 29.84375 27.703125 29.785156 27.414062 29.785156 27.113281 C 29.785156 26.8125 29.84375 26.527344 29.957031 26.25 C 30.074219 25.972656 30.234375 25.726562 30.449219 25.515625 C 30.660156 25.304688 30.902344 25.140625 31.179688 25.023438 C 31.457031 24.910156 31.742188 24.851562 32.042969 24.851562 C 32.34375 24.851562 32.628906 24.910156 32.90625 25.023438 C 33.183594 25.140625 33.425781 25.304688 33.640625 25.515625 C 33.851562 25.726562 34.015625 25.972656 34.128906 26.25 C 34.242188 26.527344 34.300781 26.8125 34.300781 27.113281 Z M 34.300781 27.113281 " fill-opacity="1" fill-rule="nonzero"/><path fill="#ff725c" d="M 35.570312 47.664062 L 24.960938 47.664062 L 27.914062 40.421875 L 28.34375 40.421875 Z M 35.570312 47.664062 " fill-opacity="1" fill-rule="nonzero"/><path fill="#f7e07f" d="M 42.800781 54.910156 L 22.011719 54.910156 L 24.960938 47.664062 L 35.570312 47.664062 Z M 42.800781 54.910156 " fill-opacity="1" fill-rule="nonzero"/><path fill="#ff725c" d="M 49.757812 61.882812 L 49.101562 62.152344 L 19.058594 62.152344 L 22.011719 54.910156 L 42.800781 54.910156 Z M 49.757812 61.882812 " fill-opacity="1" fill-rule="nonzero"/><path fill="#f7e07f" d="M 49.101562 62.152344 L 31.394531 69.394531 L 16.109375 69.394531 L 19.058594 62.152344 Z M 49.101562 62.152344 " fill-opacity="1" fill-rule="nonzero"/><g clip-path="url(#bc4d51d9c4)"><path fill="#ff725c" d="M 31.394531 69.394531 L 13.050781 76.902344 L 16.109375 69.394531 Z M 31.394531 69.394531 " fill-opacity="1" fill-rule="nonzero"/></g></svg>